<?xml version="1.0" encoding="utf-8"?>
<!-- Generator: Adobe Illustrator 26.3.0, SVG Export Plug-In . SVG Version: 6.00 Build 0)  -->
<svg version="1.1" id="Capa_1" xmlns="http://www.w3.org/2000/svg" xmlns:xlink="http://www.w3.org/1999/xlink" x="0px" y="0px"
	 viewBox="0 0 792 612" style="enable-background:new 0 0 792 612;" xml:space="preserve">
<style type="text/css">
	.st0{fill:#020659;}
	.st1{fill:#030A8C;}
	.st2{fill:#0468BF;}
	.st3{fill:#94CEF2;}
	.st4{fill:#FFFFFF;}
</style>
<path class="st0" d="M312,335.7v-58h10.6v58H312z"/>
<path class="st0" d="M414.3,295.1c0,4-1.1,7.5-3.4,10.3c-2.2,2.8-5.7,4.9-10.4,6.3v0.2l17.3,23.8h-12.7l-15.8-22.5h-7.3v22.5h-10.6
	v-58h17.6c2.9,0,5.6,0.2,8.1,0.5c2.5,0.3,4.7,0.8,6.5,1.5c3.4,1.3,6,3.2,7.9,5.8C413.4,288,414.3,291.3,414.3,295.1z M387.3,304.4
	c2.4,0,4.5-0.1,6.2-0.3c1.7-0.2,3.1-0.5,4.3-1c2.1-0.8,3.6-1.9,4.4-3.3c0.8-1.4,1.2-3,1.2-4.8c0-1.6-0.3-2.9-1-4.1
	c-0.7-1.2-1.8-2.1-3.3-2.8c-1-0.5-2.3-0.8-3.8-1c-1.5-0.2-3.4-0.3-5.7-0.3h-7.6v17.8H387.3z"/>
<path class="st0" d="M495.4,320.9h-21.8l-5.7,14.8h-11.3l23-58h9.7l23,58H501L495.4,320.9z M484.3,291.7c-2,6.1-3.8,11.1-5.4,15.2
	l-2,5.2h15l-2-5.2c-1.6-4.1-3.4-9.2-5.4-15.2H484.3z"/>
<path class="st0" d="M582.8,285.6c-2.9,0-5.6,0.5-8,1.4c-2.4,1-4.5,2.3-6.3,4.2c-1.7,1.8-3.1,4.1-4.1,6.7c-1,2.7-1.5,5.7-1.5,9.2
	c0,3.4,0.4,6.4,1.3,9c0.9,2.6,2.2,4.7,3.9,6.5c1.7,1.7,3.7,3,6.1,3.9c2.4,0.9,5.2,1.3,8.2,1.3c2.2,0,4.4-0.2,6.7-0.5
	c2.3-0.3,4.4-0.9,6.4-1.5v9.1c-2,0.6-4.2,1-6.5,1.4c-2.3,0.3-4.8,0.5-7.3,0.5c-4.9,0-9.2-0.7-13-2.1c-3.7-1.4-6.8-3.4-9.3-5.9
	c-2.5-2.6-4.4-5.6-5.6-9.2c-1.3-3.6-1.9-7.5-1.9-11.8c0-4.4,0.7-8.5,2-12.3c1.3-3.8,3.3-7.1,5.8-9.8c2.5-2.8,5.7-5,9.5-6.5
	c3.8-1.6,8.1-2.4,12.9-2.4c2.5,0,4.8,0.2,7,0.5c2.2,0.3,4.2,0.8,5.9,1.4v9c-2.3-0.7-4.5-1.2-6.5-1.5
	C586.7,285.7,584.7,285.6,582.8,285.6z"/>
<path class="st0" d="M652.1,277.7v49.1h27.1v8.9h-37.8v-58H652.1z"/>
<path class="st0" d="M734.8,326.8h28.5v8.9h-39.1v-58h37.6v8.9h-27v15h23.1v8.9h-23.1V326.8z"/>
<g>
	<path class="st1" d="M201.5,201.9c0-7.5,6.1-13.6,13.6-13.6c7.5,0,13.6,6.1,13.6,13.6c0,7.5-6.1,13.6-13.6,13.6
		C207.5,215.5,201.5,209.4,201.5,201.9z"/>
	<path class="st2" d="M205.4,159.6c0-5.3,4.3-9.6,9.6-9.6c5.3,0,9.6,4.3,9.6,9.6c0,5.3-4.3,9.6-9.6,9.6
		C209.7,169.2,205.4,164.9,205.4,159.6z"/>
	<path class="st3" d="M209.4,125.2c0-3.1,2.5-5.6,5.6-5.6c3.1,0,5.6,2.5,5.6,5.6c0,3.1-2.5,5.6-5.6,5.6
		C211.9,130.8,209.4,128.3,209.4,125.2z"/>
	<path class="st1" d="M228.6,410.1c0,7.5-6.1,13.6-13.6,13.6c-7.5,0-13.6-6.1-13.6-13.6c0-7.5,6.1-13.6,13.6-13.6
		C222.5,396.5,228.6,402.6,228.6,410.1z"/>
	<path class="st2" d="M224.6,452.4c0,5.3-4.3,9.6-9.6,9.6c-5.3,0-9.6-4.3-9.6-9.6c0-5.3,4.3-9.6,9.6-9.6
		C220.3,442.8,224.6,447.1,224.6,452.4z"/>
	<path class="st3" d="M220.7,486.8c0,3.1-2.5,5.6-5.6,5.6c-3.1,0-5.6-2.5-5.6-5.6c0-3.1,2.5-5.6,5.6-5.6
		C218.1,481.2,220.7,483.7,220.7,486.8z"/>
	<path class="st1" d="M132.7,241.3c-5.3-5.3-5.3-13.9,0-19.2c5.3-5.3,13.9-5.3,19.2,0c5.3,5.3,5.3,13.9,0,19.2
		C146.5,246.6,137.9,246.6,132.7,241.3z"/>
	<path class="st2" d="M105.5,208.6c-3.7-3.7-3.7-9.8,0-13.6c3.7-3.7,9.8-3.7,13.6,0c3.7,3.7,3.7,9.8,0,13.6
		C115.3,212.3,109.3,212.3,105.5,208.6z"/>
	<path class="st3" d="M84,181.4c-2.2-2.2-2.2-5.8,0-8c2.2-2.2,5.8-2.2,8,0c2.2,2.2,2.2,5.8,0,8C89.7,183.6,86.2,183.6,84,181.4z"/>
	<path class="st1" d="M111.1,318.6c-7.5,0-13.6-6.1-13.6-13.6c0-7.5,6.1-13.6,13.6-13.6c7.5,0,13.6,6.1,13.6,13.6
		C124.6,312.5,118.6,318.6,111.1,318.6z"/>
	<path class="st2" d="M68.7,314.7c-5.3,0-9.6-4.3-9.6-9.6c0-5.3,4.3-9.6,9.6-9.6c5.3,0,9.6,4.3,9.6,9.6
		C78.3,310.4,74,314.7,68.7,314.7z"/>
	<circle class="st3" cx="34.3" cy="305.1" r="5.6"/>
	<path class="st1" d="M150.5,388.5c-5.3,5.3-13.9,5.3-19.2,0c-5.3-5.3-5.3-13.9,0-19.2c5.3-5.3,13.9-5.3,19.2,0
		C155.8,374.6,155.8,383.2,150.5,388.5z"/>
	<path class="st2" d="M117.8,415.7c-3.7,3.7-9.8,3.7-13.6,0c-3.7-3.7-3.7-9.8,0-13.6c3.7-3.7,9.8-3.7,13.6,0
		C121.5,405.8,121.5,411.9,117.8,415.7z"/>
	<path class="st3" d="M90.6,437.2c-2.2,2.2-5.8,2.2-8,0c-2.2-2.2-2.2-5.8,0-8c2.2-2.2,5.8-2.2,8,0C92.8,431.4,92.8,435,90.6,437.2z"
		/>
	<path class="st2" d="M186.4,406.8c-2.9,6.9-10.9,10.1-17.8,7.2c-6.9-2.9-10.1-10.9-7.2-17.8c2.9-6.9,10.9-10.1,17.8-7.2
		C186,392,189.3,399.9,186.4,406.8z"/>
	<path class="st3" d="M166.3,444.3c-2.1,4.9-7.7,7.2-12.6,5.1c-4.9-2.1-7.2-7.7-5.1-12.6c2.1-4.9,7.7-7.2,12.6-5.1
		C166,433.8,168.3,439.4,166.3,444.3z"/>
	<path class="st2" d="M164.3,214.4c-2.8-6.9,0.5-14.8,7.4-17.7c6.9-2.8,14.8,0.5,17.7,7.4c2.8,6.9-0.5,14.8-7.4,17.7
		C175,224.6,167.1,221.3,164.3,214.4z"/>
	<path class="st3" d="M152,173.6c-2-4.9,0.4-10.5,5.3-12.5c4.9-2,10.5,0.4,12.5,5.3c2,4.9-0.4,10.5-5.3,12.5
		C159.6,180.9,154,178.5,152,173.6z"/>
	<path class="st2" d="M114.4,277.2c-6.9-2.9-10.1-10.9-7.2-17.8c2.9-6.9,10.9-10.1,17.8-7.2c6.9,2.9,10.1,10.9,7.2,17.8
		C129.2,276.9,121.3,280.1,114.4,277.2z"/>
	<path class="st3" d="M76.9,257.1c-4.9-2.1-7.2-7.7-5.1-12.6s7.7-7.2,12.6-5.1c4.9,2.1,7.2,7.7,5.1,12.6
		C87.4,256.9,81.8,259.2,76.9,257.1z"/>
	<path class="st2" d="M123.5,356.9c-6.9,2.8-14.8-0.5-17.7-7.4c-2.8-6.9,0.5-14.8,7.4-17.7c6.9-2.8,14.8,0.5,17.7,7.4
		C133.8,346.2,130.5,354.1,123.5,356.9z"/>
	<path class="st3" d="M82.8,369.2c-4.9,2-10.5-0.4-12.5-5.3c-2-4.9,0.4-10.5,5.3-12.5c4.9-2,10.5,0.4,12.5,5.3
		C90.1,361.6,87.7,367.2,82.8,369.2z"/>
	<g>
		<g>
			<path class="st0" d="M215.7,237.7c-37.7,0-68.5,30.7-68.5,68.5c0,37.7,30.7,68.4,68.5,68.4s68.5-30.7,68.5-68.4
				C284.1,268.4,253.4,237.7,215.7,237.7z M247,336.8h-11.2v-31c0-4.5,0.2-9.8,0.5-15.8H236c-0.5,1.7-1.1,3.7-1.8,5.9
				c-0.7,2.2-1.4,4.3-2.2,6.4l-12.7,34.6h-7.2l-12.7-34.6c-0.8-2.1-1.5-4.2-2.2-6.4c-0.7-2.2-1.3-4.1-1.8-5.9H195
				c0.4,5.6,0.5,10.9,0.5,15.8v31h-11.2v-61.2h15.6l10.6,29.1c1.8,4.8,3.4,10.1,5,15.6h0.3c1.3-4.8,3-10,5-15.5l10.6-29.3H247V336.8
				z"/>
		</g>
	</g>
</g>
</svg>
